<svg width="46" height="46" viewBox="0 0 46 46" fill="none" xmlns="http://www.w3.org/2000/svg">
<path d="M9.09999 38.6482C8.57402 38.6473 8.07262 38.4255 7.71811 38.037C7.35707 37.6516 7.17767 37.1304 7.22499 36.6045L7.68436 31.5532L28.9056 10.3395L35.5375 16.9695L14.3219 38.1813L9.27061 38.6407C9.21249 38.6463 9.15436 38.6482 9.09999 38.6482ZM36.8612 15.6438L30.2312 9.01385L34.2081 5.03697C34.5598 4.68489 35.037 4.48706 35.5347 4.48706C36.0323 4.48706 36.5095 4.68489 36.8612 5.03697L40.8381 9.01385C41.1902 9.36554 41.388 9.84277 41.388 10.3404C41.388 10.8381 41.1902 11.3153 40.8381 11.667L36.8631 15.642L36.8612 15.6438Z" fill="#FFBC11"/>
</svg>
